<svg width="142" height="23" viewBox="0 0 142 23" fill="none" xmlns="http://www.w3.org/2000/svg">
<g clip-path="url(#clip0_19_152)">
<path fill-rule="evenodd" clip-rule="evenodd" d="M8 18.7699C6.56217 18.7699 5.1566 18.3435 3.96107 17.5447C2.76556 16.7459 1.83376 15.6105 1.28352 14.2821C0.733283 12.9537 0.589313 11.4919 0.869823 10.0817C1.15033 8.6715 1.84272 7.37613 2.85943 6.35943C3.87613 5.34272 5.1715 4.65034 6.58173 4.36983C7.99193 4.08932 9.45367 4.23329 10.7821 4.78352C12.1105 5.33376 13.2459 6.26556 14.0447 7.4611C14.8435 8.6566 15.2699 10.0622 15.2699 11.5H8V18.7699Z" fill="#0D141C"/>
</g>
<path d="M37.544 18.252C36.68 18.252 35.894 18.06 35.186 17.676C34.49 17.28 33.932 16.71 33.512 15.966C33.104 15.21 32.9 14.292 32.9 13.212V10.188C32.9 8.568 33.356 7.326 34.268 6.462C35.18 5.586 36.416 5.148 37.976 5.148C39.524 5.148 40.718 5.562 41.558 6.39C42.41 7.206 42.836 8.316 42.836 9.72V9.792H40.496V9.648C40.496 9.204 40.4 8.802 40.208 8.442C40.028 8.082 39.752 7.8 39.38 7.596C39.008 7.38 38.54 7.272 37.976 7.272C37.136 7.272 36.476 7.53 35.996 8.046C35.516 8.562 35.276 9.264 35.276 10.152V13.248C35.276 14.124 35.516 14.832 35.996 15.372C36.476 15.9 37.148 16.164 38.012 16.164C38.876 16.164 39.506 15.936 39.902 15.48C40.298 15.024 40.496 14.448 40.496 13.752V13.572H37.508V11.556H42.836V18H40.64V16.794H40.316C40.232 16.998 40.094 17.214 39.902 17.442C39.722 17.67 39.446 17.862 39.074 18.018C38.702 18.174 38.192 18.252 37.544 18.252ZM47.95 18.252C47.314 18.252 46.744 18.144 46.24 17.928C45.736 17.7 45.334 17.376 45.034 16.956C44.746 16.524 44.602 16.002 44.602 15.39C44.602 14.778 44.746 14.268 45.034 13.86C45.334 13.44 45.742 13.128 46.258 12.924C46.786 12.708 47.386 12.6 48.058 12.6H50.506V12.096C50.506 11.676 50.374 11.334 50.11 11.07C49.846 10.794 49.426 10.656 48.85 10.656C48.286 10.656 47.866 10.788 47.59 11.052C47.314 11.304 47.134 11.634 47.05 12.042L44.962 11.34C45.106 10.884 45.334 10.47 45.646 10.098C45.97 9.714 46.396 9.408 46.924 9.18C47.464 8.94 48.118 8.82 48.886 8.82C50.062 8.82 50.992 9.114 51.676 9.702C52.36 10.29 52.702 11.142 52.702 12.258V15.588C52.702 15.948 52.87 16.128 53.206 16.128H53.926V18H52.414C51.97 18 51.604 17.892 51.316 17.676C51.028 17.46 50.884 17.172 50.884 16.812V16.794H50.542C50.494 16.938 50.386 17.13 50.218 17.37C50.05 17.598 49.786 17.802 49.426 17.982C49.066 18.162 48.574 18.252 47.95 18.252ZM48.346 16.416C48.982 16.416 49.498 16.242 49.894 15.894C50.302 15.534 50.506 15.06 50.506 14.472V14.292H48.22C47.8 14.292 47.47 14.382 47.23 14.562C46.99 14.742 46.87 14.994 46.87 15.318C46.87 15.642 46.996 15.906 47.248 16.11C47.5 16.314 47.866 16.416 48.346 16.416ZM55.5842 18V9.072H57.8162V10.08H58.1402C58.2722 9.72 58.4882 9.456 58.7882 9.288C59.1002 9.12 59.4602 9.036 59.8682 9.036H60.9482V11.052H59.8322C59.2562 11.052 58.7822 11.208 58.4102 11.52C58.0382 11.82 57.8522 12.288 57.8522 12.924V18H55.5842ZM65.282 18.252C64.646 18.252 64.076 18.144 63.572 17.928C63.068 17.7 62.666 17.376 62.366 16.956C62.078 16.524 61.934 16.002 61.934 15.39C61.934 14.778 62.078 14.268 62.366 13.86C62.666 13.44 63.074 13.128 63.59 12.924C64.118 12.708 64.718 12.6 65.39 12.6H67.838V12.096C67.838 11.676 67.706 11.334 67.442 11.07C67.178 10.794 66.758 10.656 66.182 10.656C65.618 10.656 65.198 10.788 64.922 11.052C64.646 11.304 64.466 11.634 64.382 12.042L62.294 11.34C62.438 10.884 62.666 10.47 62.978 10.098C63.302 9.714 63.728 9.408 64.256 9.18C64.796 8.94 65.45 8.82 66.218 8.82C67.394 8.82 68.324 9.114 69.008 9.702C69.692 10.29 70.034 11.142 70.034 12.258V15.588C70.034 15.948 70.202 16.128 70.538 16.128H71.258V18H69.746C69.302 18 68.936 17.892 68.648 17.676C68.36 17.46 68.216 17.172 68.216 16.812V16.794H67.874C67.826 16.938 67.718 17.13 67.55 17.37C67.382 17.598 67.118 17.802 66.758 17.982C66.398 18.162 65.906 18.252 65.282 18.252ZM65.678 16.416C66.314 16.416 66.83 16.242 67.226 15.894C67.634 15.534 67.838 15.06 67.838 14.472V14.292H65.552C65.132 14.292 64.802 14.382 64.562 14.562C64.322 14.742 64.202 14.994 64.202 15.318C64.202 15.642 64.328 15.906 64.58 16.11C64.832 16.314 65.198 16.416 65.678 16.416ZM72.3085 13.572V13.284C72.3085 12.348 72.4945 11.55 72.8665 10.89C73.2385 10.218 73.7305 9.708 74.3425 9.36C74.9665 9 75.6445 8.82 76.3765 8.82C77.1925 8.82 77.8105 8.964 78.2305 9.252C78.6505 9.54 78.9565 9.84 79.1485 10.152H79.4725V9.072H81.7045V19.584C81.7045 20.196 81.5245 20.682 81.1645 21.042C80.8045 21.414 80.3245 21.6 79.7245 21.6H73.7485V19.62H78.9325C79.2685 19.62 79.4365 19.44 79.4365 19.08V16.758H79.1125C78.9925 16.95 78.8245 17.148 78.6085 17.352C78.3925 17.544 78.1045 17.706 77.7445 17.838C77.3845 17.97 76.9285 18.036 76.3765 18.036C75.6445 18.036 74.9665 17.862 74.3425 17.514C73.7305 17.154 73.2385 16.644 72.8665 15.984C72.4945 15.312 72.3085 14.508 72.3085 13.572ZM77.0245 16.056C77.7205 16.056 78.3025 15.834 78.7705 15.39C79.2385 14.946 79.4725 14.322 79.4725 13.518V13.338C79.4725 12.522 79.2385 11.898 78.7705 11.466C78.3145 11.022 77.7325 10.8 77.0245 10.8C76.3285 10.8 75.7465 11.022 75.2785 11.466C74.8105 11.898 74.5765 12.522 74.5765 13.338V13.518C74.5765 14.322 74.8105 14.946 75.2785 15.39C75.7465 15.834 76.3285 16.056 77.0245 16.056ZM88.287 18.252C87.399 18.252 86.613 18.066 85.929 17.694C85.257 17.31 84.729 16.776 84.345 16.092C83.973 15.396 83.787 14.58 83.787 13.644V13.428C83.787 12.492 83.973 11.682 84.345 10.998C84.717 10.302 85.239 9.768 85.911 9.396C86.583 9.012 87.363 8.82 88.251 8.82C89.127 8.82 89.889 9.018 90.537 9.414C91.185 9.798 91.689 10.338 92.049 11.034C92.409 11.718 92.589 12.516 92.589 13.428V14.202H86.091C86.115 14.814 86.343 15.312 86.775 15.696C87.207 16.08 87.735 16.272 88.359 16.272C88.995 16.272 89.463 16.134 89.763 15.858C90.063 15.582 90.291 15.276 90.447 14.94L92.301 15.912C92.133 16.224 91.887 16.566 91.563 16.938C91.251 17.298 90.831 17.61 90.303 17.874C89.775 18.126 89.103 18.252 88.287 18.252ZM86.109 12.51H90.285C90.237 11.994 90.027 11.58 89.655 11.268C89.295 10.956 88.821 10.8 88.233 10.8C87.621 10.8 87.135 10.956 86.775 11.268C86.415 11.58 86.193 11.994 86.109 12.51ZM99.106 18V5.4H103.516L105.694 16.38H106.018L108.196 5.4H112.606V18H110.302V7.146H109.978L107.818 18H103.894L101.734 7.146H101.41V18H99.106ZM117.823 18.252C117.187 18.252 116.617 18.144 116.113 17.928C115.609 17.7 115.207 17.376 114.907 16.956C114.619 16.524 114.475 16.002 114.475 15.39C114.475 14.778 114.619 14.268 114.907 13.86C115.207 13.44 115.615 13.128 116.131 12.924C116.659 12.708 117.259 12.6 117.931 12.6H120.379V12.096C120.379 11.676 120.247 11.334 119.983 11.07C119.719 10.794 119.299 10.656 118.723 10.656C118.159 10.656 117.739 10.788 117.463 11.052C117.187 11.304 117.007 11.634 116.923 12.042L114.835 11.34C114.979 10.884 115.207 10.47 115.519 10.098C115.843 9.714 116.269 9.408 116.797 9.18C117.337 8.94 117.991 8.82 118.759 8.82C119.935 8.82 120.865 9.114 121.549 9.702C122.233 10.29 122.575 11.142 122.575 12.258V15.588C122.575 15.948 122.743 16.128 123.079 16.128H123.799V18H122.287C121.843 18 121.477 17.892 121.189 17.676C120.901 17.46 120.757 17.172 120.757 16.812V16.794H120.415C120.367 16.938 120.259 17.13 120.091 17.37C119.923 17.598 119.659 17.802 119.299 17.982C118.939 18.162 118.447 18.252 117.823 18.252ZM118.219 16.416C118.855 16.416 119.371 16.242 119.767 15.894C120.175 15.534 120.379 15.06 120.379 14.472V14.292H118.093C117.673 14.292 117.343 14.382 117.103 14.562C116.863 14.742 116.743 14.994 116.743 15.318C116.743 15.642 116.869 15.906 117.121 16.11C117.373 16.314 117.739 16.416 118.219 16.416ZM128.227 18C127.639 18 127.159 17.82 126.787 17.46C126.427 17.088 126.247 16.596 126.247 15.984V10.944H124.015V9.072H126.247V6.3H128.515V9.072H130.963V10.944H128.515V15.588C128.515 15.948 128.683 16.128 129.019 16.128H130.747V18H128.227ZM136.767 18.252C135.879 18.252 135.093 18.066 134.409 17.694C133.737 17.31 133.209 16.776 132.825 16.092C132.453 15.396 132.267 14.58 132.267 13.644V13.428C132.267 12.492 132.453 11.682 132.825 10.998C133.197 10.302 133.719 9.768 134.391 9.396C135.063 9.012 135.843 8.82 136.731 8.82C137.607 8.82 138.369 9.018 139.017 9.414C139.665 9.798 140.169 10.338 140.529 11.034C140.889 11.718 141.069 12.516 141.069 13.428V14.202H134.571C134.595 14.814 134.823 15.312 135.255 15.696C135.687 16.08 136.215 16.272 136.839 16.272C137.475 16.272 137.943 16.134 138.243 15.858C138.543 15.582 138.771 15.276 138.927 14.94L140.781 15.912C140.613 16.224 140.367 16.566 140.043 16.938C139.731 17.298 139.311 17.61 138.783 17.874C138.255 18.126 137.583 18.252 136.767 18.252ZM134.589 12.51H138.765C138.717 11.994 138.507 11.58 138.135 11.268C137.775 10.956 137.301 10.8 136.713 10.8C136.101 10.8 135.615 10.956 135.255 11.268C134.895 11.58 134.673 11.994 134.589 12.51Z" fill="#0D141C"/>
<defs>
<clipPath id="clip0_19_152">
<rect width="16" height="16" fill="white" transform="translate(0 3.5)"/>
</clipPath>
</defs>
</svg>
